<?xml version="1.0" encoding="utf-8"?>
<!-- Generator: Adobe Illustrator 28.2.0, SVG Export Plug-In . SVG Version: 6.00 Build 0)  -->
<svg version="1.1" id="Layer_1" xmlns="http://www.w3.org/2000/svg" xmlns:xlink="http://www.w3.org/1999/xlink" x="0px" y="0px"
	 viewBox="0 0 358 148" style="enable-background:new 0 0 358 148;" xml:space="preserve">
<style type="text/css">
	.st0{stroke:#000000;}
	.st1{fill:none;stroke:#000000;stroke-width:3;stroke-linecap:round;}
	.st2{fill-rule:evenodd;clip-rule:evenodd;}
</style>
<path class="st0" d="M22.3,55.5L22.3,55.5c-0.2-1.6-0.3-3.2-0.3-4.9c0-18.3,15-33.3,33.3-33.3c18.3,0,33.2,15,33.2,33.3
	c0,1.6-0.1,3.3-0.3,4.8C87.4,61,84,65.6,80.3,70.6l0,0c-4.6,6.2-9.5,12.8-9.5,22.3c0,0.4-0.2,0.8-0.6,1.1L70,94.2v0.2v5.8
	c0,1.2-0.6,2.4-1.5,3.2l-0.2,0.1v0.2v0.9c0,5.2-4.2,9.4-9.4,9.4h-7.1c-5.2,0-9.4-4.2-9.4-9.4V104v-0.2l-0.2-0.2
	c-1-0.8-1.6-2-1.6-3.3v-5.7v-0.2l-0.2-0.2c-0.4-0.3-0.7-0.8-0.7-1.3c0-9.5-4.9-16.1-9.6-22.3c-0.1-0.1-0.2-0.2-0.2-0.3
	C26.2,65.3,23,60.9,22.3,55.5z M45.9,104.6h-0.5l0,0.5c0.2,3.5,2.9,6.1,6.4,6.1h7.1c3.5,0,6.2-2.6,6.4-6.1l0-0.5h-0.5H45.9z
	 M44.4,101.5L44.4,101.5l0.2,0h21.1c0.8,0,1.3-0.7,1.3-1.3v-5.4v-0.5h-0.5H44.1h-0.5v0.5v5.5C43.6,100.9,43.9,101.4,44.4,101.5z
	 M67.4,91.4h0.5l0-0.5c0.6-9.3,5.5-16,10-22.1l0.1-0.2c3.3-4.5,6.6-8.9,7.2-13.7c0.2-1.4,0.3-2.9,0.3-4.4
	c0-16.7-13.5-30.3-30.2-30.3C38.6,20.3,25,33.9,25,50.6c0,1.5,0.1,3,0.3,4.5c0.6,4.9,3.9,9.3,7.3,13.7c4.5,6,9.4,12.7,10,22.1l0,0.5
	h0.5H67.4z"/>
<path d="M192.2,145h-1.9c-0.5,0-0.8-0.3-0.8-0.8v-34.8c0-0.5,0.3-0.8,0.8-0.8h2.1c0.5,0,0.7,0.3,0.7,0.8V122c2.7-2,5.6-3.1,8.8-3.1
	c2.4,0,4.2,0.6,5.4,1.8c1.2,1.2,1.8,2.8,1.8,4.8v13.2c0,2-0.6,3.7-1.8,4.9c-1.2,1.2-3,1.8-5.4,1.8c-3.4,0-6.4-1-8.9-3.1l-0.1,1.9
	C192.9,144.7,192.6,145,192.2,145z M205.5,138.2v-12.2c0-2.6-1.5-3.9-4.6-3.9c-2.7,0-5.3,1-7.9,3v14.1c2.6,1.9,5.3,2.9,7.9,2.9
	C204,142.1,205.5,140.8,205.5,138.2z"/>
<path d="M162.9,126.4v-0.9c0-4.4,3.1-6.6,9.4-6.6c6.2,0,9.4,2.2,9.4,6.6v18.7c0,0.5-0.2,0.8-0.7,0.8H179c-0.5,0-0.7-0.3-0.8-0.8
	l-0.1-1.9c-2.6,2-5.4,3.1-8.6,3.1c-2.3,0-4.1-0.6-5.4-1.7c-1.2-1.2-1.8-2.7-1.8-4.4v-2.6c0-1.8,0.6-3.2,1.7-4.4
	c1.2-1.2,2.9-1.8,5-1.8h8.9v-4.7c0-1.3-0.4-2.3-1.3-3c-0.9-0.7-2.4-1-4.6-1c-2.2,0-3.7,0.3-4.6,1c-0.9,0.7-1.3,1.6-1.3,2.9v0.6
	c0,0.6-0.3,0.8-0.8,0.8h-1.9C163.1,127.2,162.9,126.9,162.9,126.4z M170.4,142.4c2.6,0,5.2-1,7.7-2.9v-6.1h-8.3c-2.6,0-4,1.2-4,3.7
	v1.7C165.8,141.2,167.4,142.4,170.4,142.4z"/>
<path d="M142.4,110.4v31.4H157c0.5,0,0.7,0.2,0.7,0.7v1.7c0,0.5-0.2,0.8-0.7,0.8h-17.6c-0.4,0-0.6-0.3-0.6-0.8v-33.8
	c0-0.5,0.2-0.8,0.7-0.8h2.2C142.2,109.6,142.4,109.9,142.4,110.4z"/>
<path d="M340.3,71.3c0.5,0,0.7,0.3,0.8,0.8l0.1,2c2.5-2.1,5.4-3.2,8.9-3.2c2.3,0,4.1,0.6,5.3,1.8c1.2,1.2,1.9,2.7,1.9,4.6v18.9
	c0,0.5-0.2,0.8-0.7,0.8h-2.1c-0.5,0-0.8-0.3-0.8-0.8V78.1c0-2.6-1.5-4-4.6-4c-2.7,0-5.4,1-7.9,2.9v19.2c0,0.5-0.2,0.8-0.7,0.8h-2.1
	c-0.5,0-0.8-0.3-0.8-0.8V72.1c0-0.5,0.3-0.8,0.8-0.8H340.3z"/>
<path d="M310.4,90.7V77.6c0-4.5,3.3-6.7,9.8-6.7c6.6,0,9.8,2.2,9.8,6.7v13.1c0,4.5-3.3,6.7-9.8,6.7
	C313.7,97.4,310.4,95.2,310.4,90.7z M326.4,90.4V77.9c0-2.7-2.1-4-6.2-4c-4.1,0-6.2,1.3-6.2,4v12.6c0,2.7,2.1,4,6.2,4
	C324.3,94.5,326.4,93.1,326.4,90.4z"/>
<path d="M302.7,72.1v24.1c0,0.5-0.2,0.8-0.7,0.8h-2.1c-0.5,0-0.8-0.3-0.8-0.8V72.1c0-0.5,0.3-0.8,0.8-0.8h2.1
	C302.5,71.3,302.7,71.6,302.7,72.1z M302.7,61.4v4.8c0,0.5-0.2,0.8-0.7,0.8h-2.1c-0.5,0-0.8-0.3-0.8-0.8v-4.8c0-0.5,0.3-0.8,0.8-0.8
	h2.1C302.5,60.7,302.7,60.9,302.7,61.4z"/>
<path d="M285.8,71.4h5.8c0.5,0,0.8,0.2,0.8,0.7v1.5c0,0.5-0.3,0.8-0.8,0.8h-5.8v15.5c0,1.3,0.5,2.3,1.4,3c0.9,0.7,2.5,1,4.7,1h0.9
	c0.5,0,0.8,0.3,0.8,0.8v1.5c0,0.5-0.3,0.8-0.8,0.8h-1.4c-3.4,0-5.8-0.6-7.2-1.7c-1.4-1.1-2-2.8-2-5V74.4h-3.1
	c-0.5,0-0.7-0.3-0.7-0.8v-1.2c0-0.5,0.2-0.7,0.7-0.8l2.7-0.2h0.4v-5.5c0-0.5,0.3-0.8,0.8-0.8h2.1c0.5,0,0.7,0.3,0.7,0.8V71.4z"/>
<path d="M254.5,78.4v-0.9c0-4.4,3.1-6.6,9.4-6.6c6.2,0,9.4,2.2,9.4,6.6v18.7c0,0.5-0.2,0.8-0.7,0.8h-1.9c-0.5,0-0.7-0.3-0.8-0.8
	l-0.1-1.9c-2.6,2-5.4,3.1-8.6,3.1c-2.3,0-4.1-0.6-5.4-1.7c-1.2-1.2-1.8-2.7-1.8-4.4v-2.6c0-1.8,0.6-3.2,1.7-4.4
	c1.2-1.2,2.9-1.8,5-1.8h8.9v-4.7c0-1.3-0.4-2.3-1.3-3s-2.4-1-4.6-1s-3.7,0.3-4.6,1c-0.9,0.7-1.3,1.6-1.3,2.9v0.6
	c0,0.6-0.3,0.8-0.8,0.8h-1.9C254.7,79.2,254.5,78.9,254.5,78.4z M262,94.4c2.6,0,5.2-1,7.7-2.9v-6.1h-8.3c-2.6,0-4,1.2-4,3.7v1.7
	C257.5,93.2,259,94.4,262,94.4z"/>
<path d="M240.9,97h-2.4c-0.4,0-0.6-0.2-0.8-0.7l-8.2-24.2c-0.2-0.5,0.1-0.8,0.7-0.8h2.2c0.4,0,0.7,0.3,0.9,0.8l5.8,17.2
	c0.3,1.1,0.6,2.2,0.7,3.2c0.3-1.6,0.6-2.6,0.8-3.2l5.9-17.3c0.2-0.5,0.5-0.8,0.9-0.8h2c0.6,0,0.8,0.3,0.7,0.8l-8.4,24.2
	C241.6,96.8,241.3,97,240.9,97z"/>
<path d="M205.7,90.7V77.6c0-4.5,3.3-6.7,9.8-6.7c6.6,0,9.8,2.2,9.8,6.7v13.1c0,4.5-3.3,6.7-9.8,6.7
	C208.9,97.4,205.7,95.2,205.7,90.7z M221.7,90.4V77.9c0-2.7-2.1-4-6.2-4c-4.1,0-6.2,1.3-6.2,4v12.6c0,2.7,2.1,4,6.2,4
	C219.6,94.5,221.7,93.1,221.7,90.4z"/>
<path d="M181.4,71.3c0.5,0,0.7,0.3,0.8,0.8l0.1,2c2.5-2.1,5.4-3.2,8.9-3.2c2.3,0,4.1,0.6,5.3,1.8c1.2,1.2,1.9,2.7,1.9,4.6v18.9
	c0,0.5-0.2,0.8-0.7,0.8h-2.1c-0.5,0-0.8-0.3-0.8-0.8V78.1c0-2.6-1.5-4-4.6-4c-2.7,0-5.4,1-7.9,2.9v19.2c0,0.5-0.2,0.8-0.7,0.8h-2.1
	c-0.5,0-0.8-0.3-0.8-0.8V72.1c0-0.5,0.3-0.8,0.8-0.8H181.4z"/>
<path d="M153.9,71.3c0.5,0,0.7,0.3,0.8,0.8l0.1,2c2.5-2.1,5.4-3.2,8.9-3.2c2.3,0,4.1,0.6,5.3,1.8c1.2,1.2,1.9,2.7,1.9,4.6v18.9
	c0,0.5-0.2,0.8-0.7,0.8H168c-0.5,0-0.8-0.3-0.8-0.8V78.1c0-2.6-1.5-4-4.6-4c-2.7,0-5.4,1-7.9,2.9v19.2c0,0.5-0.2,0.8-0.7,0.8H152
	c-0.5,0-0.8-0.3-0.8-0.8V72.1c0-0.5,0.3-0.8,0.8-0.8H153.9z"/>
<path d="M142.4,62.4v33.8c0,0.5-0.2,0.8-0.7,0.8h-2.2c-0.5,0-0.7-0.3-0.7-0.8V62.4c0-0.5,0.2-0.8,0.7-0.8h2.2
	C142.1,61.6,142.4,61.9,142.4,62.4z"/>
<path d="M244,23.4h5.8c0.5,0,0.8,0.2,0.8,0.7v1.5c0,0.5-0.3,0.8-0.8,0.8H244v15.5c0,1.3,0.5,2.3,1.4,3c0.9,0.7,2.5,1,4.7,1h0.9
	c0.5,0,0.8,0.3,0.8,0.8v1.5c0,0.5-0.3,0.8-0.8,0.8h-1.4c-3.4,0-5.8-0.6-7.2-1.7c-1.4-1.1-2-2.8-2-5V26.4h-3.1
	c-0.5,0-0.7-0.3-0.7-0.8v-1.2c0-0.5,0.2-0.7,0.7-0.8l2.7-0.2h0.4v-5.5c0-0.5,0.3-0.8,0.8-0.8h2.1c0.5,0,0.7,0.3,0.7,0.8V23.4z"/>
<path d="M214.4,23.3c0.5,0,0.7,0.3,0.8,0.8l0.1,2c2.5-2.1,5.4-3.2,8.9-3.2c2.3,0,4.1,0.6,5.3,1.8c1.2,1.2,1.9,2.7,1.9,4.6v18.9
	c0,0.5-0.2,0.8-0.7,0.8h-2.1c-0.5,0-0.8-0.3-0.8-0.8V30.1c0-2.6-1.5-4-4.6-4c-2.7,0-5.4,1-7.9,2.9v19.2c0,0.5-0.2,0.8-0.7,0.8h-2.1
	c-0.5,0-0.8-0.3-0.8-0.8V24.1c0-0.5,0.3-0.8,0.8-0.8H214.4z"/>
<path d="M185.2,30.4v-0.9c0-4.4,3.1-6.6,9.4-6.6c6.2,0,9.4,2.2,9.4,6.6v18.7c0,0.5-0.2,0.8-0.7,0.8h-1.9c-0.5,0-0.7-0.3-0.8-0.8
	l-0.1-1.9c-2.6,2-5.4,3.1-8.6,3.1c-2.3,0-4.1-0.6-5.4-1.7c-1.2-1.2-1.8-2.7-1.8-4.4v-2.6c0-1.8,0.6-3.2,1.7-4.4
	c1.2-1.2,2.9-1.8,5-1.8h8.9v-4.7c0-1.3-0.4-2.3-1.3-3c-0.9-0.7-2.4-1-4.6-1c-2.2,0-3.7,0.3-4.6,1c-0.9,0.7-1.3,1.6-1.3,2.9v0.6
	c0,0.6-0.3,0.8-0.8,0.8h-1.9C185.4,31.2,185.2,30.9,185.2,30.4z M192.7,46.4c2.6,0,5.2-1,7.7-2.9v-6.1h-8.3c-2.6,0-4,1.2-4,3.7v1.7
	C188.1,45.2,189.6,46.4,192.7,46.4z"/>
<path d="M179.7,22.9c0.6,0,0.8,0.3,0.8,0.8v1.7c0,0.5-0.3,0.8-0.8,0.8c-3,0.1-5.8,1.3-8.5,3.5v18.6c0,0.5-0.2,0.8-0.7,0.8h-2.1
	c-0.5,0-0.8-0.3-0.8-0.8V24.1c0-0.5,0.3-0.8,0.8-0.8h1.9c0.5,0,0.7,0.3,0.8,0.8l0.2,2.5C173.9,24.1,176.7,22.9,179.7,22.9z"/>
<path d="M149.5,32h9.8c0.5,0,0.8,0.2,0.8,0.7v9.1c0,5.1-3.7,7.6-11,7.6s-11-2.5-11-7.6v-21c0-5.1,3.7-7.6,11-7.6s11,2.5,11,7.6v2.5
	c0,0.5-0.2,0.7-0.7,0.7h-2.1c-0.5,0-0.8-0.2-0.8-0.7v-1.9c0-3.3-2.4-5-7.3-5s-7.3,1.7-7.3,5v19.9c0,3.3,2.4,5,7.3,5s7.3-1.6,7.3-4.9
	v-6.1h-7c-0.5,0-0.7-0.3-0.7-0.8v-1.7C148.8,32.2,149,32,149.5,32z"/>
<g>
	<g>
		<path class="st1" d="M9,79.3c0,0,3.2,1.2,7.3,2.4c6.9,1.9,14.3,1.2,20.6-2.2c2.4-1.3,5.8-3.4,9.4-7.6c3.3-3.8,7.9-16.4,4.1-20.1
			c-4.5-4.4-11.1,1.5-7.8,6c2.6,3.6,6.1,2.9,8.9,2.9C57.7,60.5,64,54.3,66,49.2c1.6-4,1.4-6.9-0.4-9.1c-2.9-3.5-11.2-1.1-8.6,5.6
			c1.7,4.5,6.8,3.7,9,3.5c2.5-0.3,10.3-5.4,14.8-10.5s5.1-7.6,7.2-13.5s3.7-16.4,3.7-16.4"/>
		<g>
			<polygon points="102.3,20.6 99.8,22.2 91.5,10 79.9,19.1 78.1,16.8 92.2,5.6 			"/>
		</g>
	</g>
</g>
<path class="st2" d="M25,37.8H0v110h110v-110H85v3.9h21.1v102.2H3.9V41.6H25V37.8z"/>
</svg>
